<mxfile host="app.diagrams.net" modified="2023-04-03T09:48:42.008Z" agent="Mozilla/5.0 (Macintosh; Intel Mac OS X 10_15_7) AppleWebKit/605.1.15 (KHTML, like Gecko) Version/15.1 Safari/605.1.15" etag="x0z1FhEFQGEhioYXAPdl" version="21.1.2" type="github">
  <diagram name="Page-1" id="atSApHq4ULKwX2A9YDvu">
    <mxGraphModel dx="754" dy="483" grid="1" gridSize="10" guides="1" tooltips="1" connect="1" arrows="1" fold="1" page="1" pageScale="1" pageWidth="827" pageHeight="1169" math="0" shadow="0">
      <root>
        <mxCell id="0" />
        <mxCell id="1" parent="0" />
        <mxCell id="kEb-vn_hMvLCUCeb2jWD-1" value="Start" style="ellipse;whiteSpace=wrap;html=1;" vertex="1" parent="1">
          <mxGeometry x="210" y="10" width="120" height="80" as="geometry" />
        </mxCell>
        <mxCell id="kEb-vn_hMvLCUCeb2jWD-2" value="" style="endArrow=classic;html=1;rounded=0;" edge="1" parent="1">
          <mxGeometry width="50" height="50" relative="1" as="geometry">
            <mxPoint x="270" y="90" as="sourcePoint" />
            <mxPoint x="270" y="140" as="targetPoint" />
          </mxGeometry>
        </mxCell>
        <mxCell id="kEb-vn_hMvLCUCeb2jWD-5" value="initialise Sum = 0&amp;nbsp;&lt;br&gt;Square1 =0&lt;br&gt;Square 2 =0" style="rounded=0;whiteSpace=wrap;html=1;" vertex="1" parent="1">
          <mxGeometry x="210" y="140" width="120" height="60" as="geometry" />
        </mxCell>
        <mxCell id="kEb-vn_hMvLCUCeb2jWD-6" value="" style="endArrow=classic;html=1;rounded=0;" edge="1" parent="1">
          <mxGeometry width="50" height="50" relative="1" as="geometry">
            <mxPoint x="269.5" y="200" as="sourcePoint" />
            <mxPoint x="269.5" y="240" as="targetPoint" />
            <Array as="points">
              <mxPoint x="269.5" y="220" />
            </Array>
          </mxGeometry>
        </mxCell>
        <mxCell id="kEb-vn_hMvLCUCeb2jWD-7" value="Input valua a (integer)&lt;br&gt;Input value b (integer)" style="shape=parallelogram;perimeter=parallelogramPerimeter;whiteSpace=wrap;html=1;fixedSize=1;" vertex="1" parent="1">
          <mxGeometry x="200" y="240" width="140" height="70" as="geometry" />
        </mxCell>
        <mxCell id="kEb-vn_hMvLCUCeb2jWD-8" value="" style="endArrow=classic;html=1;rounded=0;" edge="1" parent="1">
          <mxGeometry width="50" height="50" relative="1" as="geometry">
            <mxPoint x="270" y="350" as="sourcePoint" />
            <mxPoint x="270" y="350" as="targetPoint" />
            <Array as="points">
              <mxPoint x="270" y="310" />
            </Array>
          </mxGeometry>
        </mxCell>
        <mxCell id="kEb-vn_hMvLCUCeb2jWD-9" value="Calculate &amp;nbsp;&lt;br&gt;square1 = a*a&lt;br&gt;square2 = b*b" style="rounded=0;whiteSpace=wrap;html=1;" vertex="1" parent="1">
          <mxGeometry x="210" y="350" width="120" height="60" as="geometry" />
        </mxCell>
        <mxCell id="kEb-vn_hMvLCUCeb2jWD-11" value="Calculate&lt;br&gt;Sum = square1 +square 2&amp;nbsp;" style="rounded=0;whiteSpace=wrap;html=1;" vertex="1" parent="1">
          <mxGeometry x="195" y="450" width="150" height="60" as="geometry" />
        </mxCell>
        <mxCell id="kEb-vn_hMvLCUCeb2jWD-16" value="" style="endArrow=classic;html=1;rounded=0;" edge="1" parent="1">
          <mxGeometry width="50" height="50" relative="1" as="geometry">
            <mxPoint x="269.5" y="410" as="sourcePoint" />
            <mxPoint x="270" y="450" as="targetPoint" />
          </mxGeometry>
        </mxCell>
        <mxCell id="kEb-vn_hMvLCUCeb2jWD-18" value="" style="endArrow=classic;html=1;rounded=0;" edge="1" parent="1" target="kEb-vn_hMvLCUCeb2jWD-19">
          <mxGeometry width="50" height="50" relative="1" as="geometry">
            <mxPoint x="269.5" y="510" as="sourcePoint" />
            <mxPoint x="269.5" y="570" as="targetPoint" />
          </mxGeometry>
        </mxCell>
        <mxCell id="kEb-vn_hMvLCUCeb2jWD-19" value="Print sum" style="rounded=0;whiteSpace=wrap;html=1;" vertex="1" parent="1">
          <mxGeometry x="210" y="540" width="120" height="60" as="geometry" />
        </mxCell>
        <mxCell id="kEb-vn_hMvLCUCeb2jWD-21" value="End" style="ellipse;whiteSpace=wrap;html=1;" vertex="1" parent="1">
          <mxGeometry x="210" y="640" width="120" height="80" as="geometry" />
        </mxCell>
        <mxCell id="kEb-vn_hMvLCUCeb2jWD-29" value="" style="endArrow=classic;html=1;rounded=0;" edge="1" parent="1">
          <mxGeometry width="50" height="50" relative="1" as="geometry">
            <mxPoint x="269.5" y="600" as="sourcePoint" />
            <mxPoint x="269.5" y="640" as="targetPoint" />
          </mxGeometry>
        </mxCell>
      </root>
    </mxGraphModel>
  </diagram>
</mxfile>
